<?xml version='1.0' encoding='utf-8'?>
<svg xmlns="http://www.w3.org/2000/svg" viewBox="0 0 1066 357" version="1.2" baseProfile="tiny">
<title>example_node_names</title>
<desc>
Generated with PERT Maker.
Version: Experimental - Build: 07e6e910
You can find this app here: https://github.com/Synell/PERT-Maker/releases/latest
</desc>
<defs>
</defs>
<g fill="none" stroke="#ffffffff" stroke-width="1" fill-rule="evenodd" stroke-linecap="square" stroke-linejoin="bevel">

<rect x="0" y="0" width="1066" height="357" fill="#00000000" stroke="none" /><g fill="none" stroke="#ffffffff" stroke-opacity="1" stroke-width="2" stroke-linecap="square" stroke-linejoin="bevel" transform="matrix(1,0,0,1,0,0)" font-family="Segoe UI" font-size="9" font-weight="400" font-style="normal">
<circle cx="298" cy="88" r="40" />
<polyline fill="none" vector-effect="none" points="298,88 298,48" />
<polyline fill="none" vector-effect="none" points="258,88 338,88" />
<text fill="#ffffffff" fill-opacity="1" stroke="none" xml:space="preserve" x="295" y="108" font-family="Segoe UI" font-size="9" font-weight="400" font-style="normal">A</text>
<text fill="#ffffffff" fill-opacity="1" stroke="none" xml:space="preserve" x="279" y="74" font-family="Segoe UI" font-size="9" font-weight="400" font-style="normal">0</text>
<text fill="#ffffffff" fill-opacity="1" stroke="none" xml:space="preserve" x="311" y="74" font-family="Segoe UI" font-size="9" font-weight="400" font-style="normal">0</text>
<polyline fill="none" vector-effect="none" points="337,86 453,81" />
<polyline fill="none" vector-effect="none" points="453,81 443,77" />
<polyline fill="none" vector-effect="none" points="453,81 444,86" />
<text fill="#ffffffff" fill-opacity="1" stroke="none" xml:space="preserve" x="394" y="64" font-family="Segoe UI" font-size="9" font-weight="400" font-style="normal"> 6</text>
<polyline fill="none" vector-effect="none" points="332,108 562,242" />
<polyline fill="none" vector-effect="none" points="562,242 556,234" />
<polyline fill="none" vector-effect="none" points="562,242 552,241" />
<text fill="#ffffffff" fill-opacity="1" stroke="none" xml:space="preserve" x="457" y="158" font-family="Segoe UI" font-size="9" font-weight="400" font-style="normal"> 6</text>
<circle cx="239" cy="261" r="40" />
<polyline fill="none" vector-effect="none" points="239,261 239,221" />
<polyline fill="none" vector-effect="none" points="199,261 279,261" />
<text fill="#ffffffff" fill-opacity="1" stroke="none" xml:space="preserve" x="236" y="281" font-family="Segoe UI" font-size="9" font-weight="400" font-style="normal">B</text>
<text fill="#ffffffff" fill-opacity="1" stroke="none" xml:space="preserve" x="220" y="247" font-family="Segoe UI" font-size="9" font-weight="400" font-style="normal">0</text>
<text fill="#ffffffff" fill-opacity="1" stroke="none" xml:space="preserve" x="252" y="247" font-family="Segoe UI" font-size="9" font-weight="400" font-style="normal">0</text>
<polyline fill="none" vector-effect="none" points="278,264 365,273" />
<polyline fill="none" vector-effect="none" points="365,273 356,268" />
<polyline fill="none" vector-effect="none" points="365,273 355,276" />
<text fill="#ffffffff" fill-opacity="1" stroke="none" xml:space="preserve" x="323" y="249" font-family="Segoe UI" font-size="9" font-weight="400" font-style="normal"> 5</text>
<circle cx="493" cy="80" r="40" />
<polyline fill="none" vector-effect="none" points="493,80 493,40" />
<polyline fill="none" vector-effect="none" points="453,80 533,80" />
<text fill="#ffffffff" fill-opacity="1" stroke="none" xml:space="preserve" x="490" y="100" font-family="Segoe UI" font-size="9" font-weight="400" font-style="normal">C</text>
<text fill="#ffffffff" fill-opacity="1" stroke="none" xml:space="preserve" x="474" y="66" font-family="Segoe UI" font-size="9" font-weight="400" font-style="normal">0</text>
<text fill="#ffffffff" fill-opacity="1" stroke="none" xml:space="preserve" x="506" y="66" font-family="Segoe UI" font-size="9" font-weight="400" font-style="normal">0</text>
<polyline fill="none" vector-effect="none" points="532,82 614,89" />
<polyline fill="none" vector-effect="none" points="614,89 605,84" />
<polyline fill="none" vector-effect="none" points="614,89 604,92" />
<text fill="#ffffffff" fill-opacity="1" stroke="none" xml:space="preserve" x="574" y="66" font-family="Segoe UI" font-size="9" font-weight="400" font-style="normal"> 4</text>
<circle cx="405" cy="277" r="40" />
<polyline fill="none" vector-effect="none" points="405,277 405,237" />
<polyline fill="none" vector-effect="none" points="365,277 445,277" />
<text fill="#ffffffff" fill-opacity="1" stroke="none" xml:space="preserve" x="402" y="297" font-family="Segoe UI" font-size="9" font-weight="400" font-style="normal">D</text>
<text fill="#ffffffff" fill-opacity="1" stroke="none" xml:space="preserve" x="386" y="263" font-family="Segoe UI" font-size="9" font-weight="400" font-style="normal">0</text>
<text fill="#ffffffff" fill-opacity="1" stroke="none" xml:space="preserve" x="418" y="263" font-family="Segoe UI" font-size="9" font-weight="400" font-style="normal">0</text>
<polyline fill="none" vector-effect="none" points="444,274 557,265" />
<polyline fill="none" vector-effect="none" points="557,265 547,262" />
<polyline fill="none" vector-effect="none" points="557,265 548,270" />
<text fill="#ffffffff" fill-opacity="1" stroke="none" xml:space="preserve" x="499" y="250" font-family="Segoe UI" font-size="9" font-weight="400" font-style="normal"> 6</text>
<circle cx="654" cy="92" r="40" />
<polyline fill="none" vector-effect="none" points="654,92 654,52" />
<polyline fill="none" vector-effect="none" points="614,92 694,92" />
<text fill="#ffffffff" fill-opacity="1" stroke="none" xml:space="preserve" x="651" y="112" font-family="Segoe UI" font-size="9" font-weight="400" font-style="normal">E</text>
<text fill="#ffffffff" fill-opacity="1" stroke="none" xml:space="preserve" x="635" y="78" font-family="Segoe UI" font-size="9" font-weight="400" font-style="normal">0</text>
<text fill="#ffffffff" fill-opacity="1" stroke="none" xml:space="preserve" x="667" y="78" font-family="Segoe UI" font-size="9" font-weight="400" font-style="normal">0</text>
<polyline fill="none" vector-effect="none" points="693,99 743,108" />
<polyline fill="none" vector-effect="none" points="743,108 735,102" />
<polyline fill="none" vector-effect="none" points="743,108 733,111" />
<text fill="#ffffffff" fill-opacity="1" stroke="none" xml:space="preserve" x="722" y="84" font-family="Segoe UI" font-size="9" font-weight="400" font-style="normal"> 5</text>
<circle cx="597" cy="263" r="40" />
<polyline fill="none" vector-effect="none" points="597,263 597,223" />
<polyline fill="none" vector-effect="none" points="557,263 637,263" />
<text fill="#ffffffff" fill-opacity="1" stroke="none" xml:space="preserve" x="594" y="283" font-family="Segoe UI" font-size="9" font-weight="400" font-style="normal">F</text>
<text fill="#ffffffff" fill-opacity="1" stroke="none" xml:space="preserve" x="578" y="249" font-family="Segoe UI" font-size="9" font-weight="400" font-style="normal">0</text>
<text fill="#ffffffff" fill-opacity="1" stroke="none" xml:space="preserve" x="610" y="249" font-family="Segoe UI" font-size="9" font-weight="400" font-style="normal">0</text>
<polyline fill="none" vector-effect="none" points="628,238 751,140" />
<polyline fill="none" vector-effect="none" points="751,140 741,143" />
<polyline fill="none" vector-effect="none" points="751,140 747,149" />
<text fill="#ffffffff" fill-opacity="1" stroke="none" xml:space="preserve" x="677" y="173" font-family="Segoe UI" font-size="9" font-weight="400" font-style="normal"> 6</text>
<circle cx="783" cy="116" r="40" />
<polyline fill="none" vector-effect="none" points="783,116 783,76" />
<polyline fill="none" vector-effect="none" points="743,116 823,116" />
<text fill="#ffffffff" fill-opacity="1" stroke="none" xml:space="preserve" x="780" y="136" font-family="Segoe UI" font-size="9" font-weight="400" font-style="normal">G</text>
<text fill="#ffffffff" fill-opacity="1" stroke="none" xml:space="preserve" x="764" y="102" font-family="Segoe UI" font-size="9" font-weight="400" font-style="normal">0</text>
<text fill="#ffffffff" fill-opacity="1" stroke="none" xml:space="preserve" x="796" y="102" font-family="Segoe UI" font-size="9" font-weight="400" font-style="normal">0</text>
<polyline fill="none" vector-effect="none" points="820,129 948,172" />
<polyline fill="none" vector-effect="none" points="948,172 940,166" />
<polyline fill="none" vector-effect="none" points="948,172 938,174" />
<text fill="#ffffffff" fill-opacity="1" stroke="none" xml:space="preserve" x="891" y="132" font-family="Segoe UI" font-size="9" font-weight="400" font-style="normal"> 4</text>
<circle cx="80" cy="163" r="40" />
<polyline fill="none" vector-effect="none" points="80,163 80,123" />
<polyline fill="none" vector-effect="none" points="40,163 120,163" />
<text fill="#ffffffff" fill-opacity="1" stroke="none" xml:space="preserve" x="65" y="183" font-family="Segoe UI" font-size="9" font-weight="400" font-style="normal">Start</text>
<text fill="#ffffffff" fill-opacity="1" stroke="none" xml:space="preserve" x="61" y="149" font-family="Segoe UI" font-size="9" font-weight="400" font-style="normal">0</text>
<text fill="#ffffffff" fill-opacity="1" stroke="none" xml:space="preserve" x="93" y="149" font-family="Segoe UI" font-size="9" font-weight="400" font-style="normal">0</text>
<polyline fill="none" vector-effect="none" points="117,149 260,101" />
<polyline fill="none" vector-effect="none" points="260,101 250,99" />
<polyline fill="none" vector-effect="none" points="260,101 252,107" />
<text fill="#ffffffff" fill-opacity="1" stroke="none" xml:space="preserve" x="182" y="106" font-family="Segoe UI" font-size="9" font-weight="400" font-style="normal"> 1</text>
<polyline fill="none" vector-effect="none" points="114,183 204,240" />
<polyline fill="none" vector-effect="none" points="204,240 199,231" />
<polyline fill="none" vector-effect="none" points="204,240 195,238" />
<text fill="#ffffffff" fill-opacity="1" stroke="none" xml:space="preserve" x="169" y="194" font-family="Segoe UI" font-size="9" font-weight="400" font-style="normal"> 1</text>
<circle cx="986" cy="186" r="40" />
<polyline fill="none" vector-effect="none" points="986,186 986,146" />
<polyline fill="none" vector-effect="none" points="946,186 1026,186" />
<text fill="#ffffffff" fill-opacity="1" stroke="none" xml:space="preserve" x="977" y="206" font-family="Segoe UI" font-size="9" font-weight="400" font-style="normal">End</text>
<text fill="#ffffffff" fill-opacity="1" stroke="none" xml:space="preserve" x="967" y="172" font-family="Segoe UI" font-size="9" font-weight="400" font-style="normal">0</text>
<text fill="#ffffffff" fill-opacity="1" stroke="none" xml:space="preserve" x="999" y="172" font-family="Segoe UI" font-size="9" font-weight="400" font-style="normal">0</text>
</g>

<g fill="none" stroke="#ffffffff" stroke-opacity="1" stroke-width="1" stroke-linecap="square" stroke-linejoin="bevel" transform="matrix(1,0,0,1,0,0)" font-family="Segoe UI" font-size="9" font-weight="400" font-style="normal">
</g>
</g>
</svg>